<svg xmlns="http://www.w3.org/2000/svg" viewBox="0 0 83 108.87"><title>&#x8D44;&#x6E90; 32</title><path d="M20.82 55.39l.36-2q4.13-7.14 8.23-14.29c.39-.68 1.18-1.41.72-2.19s-1.49-.42-2.27-.43c-5.65-.06-11.3-.09-16.95-.12a2 2 0 0 0-1.27-.68C6.6 30.36 3.6 25 .5 19.75a2.75 2.75 0 0 1 0-3.18q4.43-7.46 8.7-15A2.6 2.6 0 0 1 11.78 0q8.79.06 17.58 0A2.64 2.64 0 0 1 32 1.54q4.34 7.64 8.77 15.2a2.43 2.43 0 0 1 0 2.82c-2.78 4.68-5.48 9.4-8.16 14.13-.39.68-1.25 1.41-.87 2.16s1.49.4 2.26.4c5.25 0 10.5.07 15.74 0a3.28 3.28 0 0 1 3.4 1.93c2.69 4.88 5.56 9.66 8.42 14.45a3.08 3.08 0 0 1 0 3.56c-2.83 4.73-5.57 9.51-8.3 14.29-1.16 2-1.06 2.16 1.33 2.17h16.56a2.77 2.77 0 0 1 2.75 1.55q4.16 7.36 8.48 14.65a3.08 3.08 0 0 1 .09 3.57c-2.93 4.9-5.75 9.87-8.57 14.84a2.84 2.84 0 0 1-2.79 1.6c-5.73-.06-11.46-.08-17.18 0a2.93 2.93 0 0 1-2.93-1.68c-3-5.26-6-10.5-9.06-15.74 0-.56.07-1.12.1-1.68l8.63-15c.3-.52.88-1 .64-1.64-.33-.78-1.19-.48-1.82-.49H31.77a2.33 2.33 0 0 0-1.34-.7A93.61 93.61 0 0 0 25 62.26c-1.32-2.32-2.37-4.83-4.18-6.87z" fill="#4d00ad"/></svg>