<svg xmlns="http://www.w3.org/2000/svg" viewBox="0 0 59.18 58.24"><path d="M0 16.17v-.28C.13 9.06 5 3.57 11 3.57a9.7 9.7 0 0 1 3.9.82l4.49 4.45A23.32 23.32 0 0 0 2.93 30.91c0 12.82 10.72 23.22 24 23.22a23.92 23.92 0 0 0 22.52-15.45L52 41.2a11.8 11.8 0 0 1 1.78 6.24A12.09 12.09 0 0 1 47 58.24H12.51A12.67 12.67 0 0 1 0 45.41z" fill="#161b6d"/><path d="M26.88 9.91c12 0 21.72 9.4 21.72 21s-9.73 21-21.72 21-21.72-9.4-21.72-21 9.72-21 21.72-21z" fill="#d13bfc" fill-opacity=".8"/><path d="M39.93 0c10.63 0 19.25 8.33 19.25 18.61s-8.62 18.6-19.25 18.6-19.24-8.33-19.24-18.6S29.31 0 39.93 0z" fill="#5c36ee" fill-opacity=".8"/></svg>